<?xml version="1.0" standalone="no"?>
<!DOCTYPE svg PUBLIC "-//W3C//DTD SVG 1.1//EN" "http://www.w3.org/Graphics/SVG/1.1/DTD/svg11.dtd" >
<svg>
<metadata>
Created by FontForge 20110222 at Mon Mar  7 13:35:37 2011
 By www-data
Typeface (c) TechFontsTM by TechFussionTM - Yun Gonza'lez. 2011. Todos los derechos reservados.
</metadata>
<defs>
<font id="Anklada" horiz-adv-x="1200" >
  <font-face 
    font-family="AnkladaTM"
    font-weight="400"
    font-stretch="normal"
    units-per-em="2048"
    panose-1="2 0 5 0 0 0 0 0 0 0"
    ascent="1638"
    descent="-410"
    x-height="1100"
    cap-height="1600"
    bbox="-102 -525 2300 2300"
    underline-thickness="150"
    underline-position="-142"
    unicode-range="U+0020-21A8"
  />
    <missing-glyph />
    <glyph glyph-name="space" unicode=" " horiz-adv-x="500" 
 />
    <glyph glyph-name="space" unicode="&#xa0;" horiz-adv-x="500" 
 />
    <glyph glyph-name="quotesingle" unicode="'" horiz-adv-x="500" 
d="M200 1408q-31 11 -56 36q-44 44 -44 106t44 106t106 44t106 -44t44 -106l-100 -250l-100 -200v308z" />
    <glyph glyph-name="hyphen" unicode="-" horiz-adv-x="700" 
d="M700 900v-200h-600v200h600z" />
    <glyph glyph-name="hyphen" unicode="&#xad;" horiz-adv-x="700" 
d="M700 900v-200h-600v200h600z" />
    <glyph glyph-name="endash" unicode="&#x2013;" horiz-adv-x="1100" 
d="M1100 900v-200h-1000v200h1000z" />
    <glyph glyph-name="emdash" unicode="&#x2014;" horiz-adv-x="2000" 
d="M2000 900v-200h-1900v200h1900z" />
    <glyph glyph-name="exclam" unicode="!" horiz-adv-x="300" 
d="M300 1800v-1300l-200 -100v1400h200zM306 256q44 -44 44 -106t-44 -106t-106 -44t-106 44t-44 106t44 106t106 44t106 -44z" />
    <glyph glyph-name="quotedbl" unicode="&#x22;" horiz-adv-x="900" 
d="M200 1408q-31 11 -56 36q-44 44 -44 106t44 106t106 44t106 -44t44 -106l-100 -250l-100 -200v308zM600 1408q-31 11 -56 36q-44 44 -44 106t44 106t106 44t106 -44t44 -106l-100 -250l-100 -200v308z" />
    <glyph glyph-name="numbersign" unicode="#" horiz-adv-x="1300" 
d="M300 600v400h-200v200h200v400l200 -100v-300h400v400h200v-400h200l-100 -200h-100v-400h200v-200h-200v-400l-200 100v300h-400v-400h-200v400h-200l100 200h100zM500 1000v-400h400v400h-400z" />
    <glyph glyph-name="dollar" unicode="$" horiz-adv-x="1000" 
d="M650 680v-460q42 18 77 53q73 73 73 177t-73 177q-35 35 -77 53zM450 1380q-42 -18 -77 -53q-73 -73 -73 -177t73 -177q35 -35 77 -53v460zM450 710q-123 27 -218 122q-132 132 -132 318t132 318q95 95 218 122v110l200 100v-210q123 -27 218 -122q132 -132 132 -318v-1
h-200v1q0 104 -73 177q-35 35 -77 53v-490q123 -27 218 -122q132 -132 132 -318t-132 -318q-95 -95 -218 -122v-110l-200 -100v210q-123 27 -218 122q-132 132 -132 318v1h200v-1q0 -104 73 -177q35 -35 77 -53v490z" />
    <glyph glyph-name="percent" unicode="%" horiz-adv-x="1300" 
d="M400 1400q-41 0 -70.5 -29.5t-29.5 -70.5t29.5 -70.5t70.5 -29.5t70.5 29.5t29.5 70.5t-29.5 70.5t-70.5 29.5zM1212 512q88 -88 88 -212t-88 -212t-212 -88t-212 88t-88 212t88 212t212 88t212 -88zM1000 400q-41 0 -70.5 -29.5t-29.5 -70.5t29.5 -70.5t70.5 -29.5
t70.5 29.5t29.5 70.5t-29.5 70.5t-70.5 29.5zM1295 1600l-959 -1600h-233l839 1400h-258q16 -47 16 -100q0 -124 -88 -212t-212 -88t-212 88t-88 212t88 212t212 88h895z" />
    <glyph glyph-name="ampersand" unicode="&#x26;" horiz-adv-x="1100" 
d="M700 600q0 83 -58.5 141.5t-141.5 58.5t-141.5 -58.5t-58.5 -141.5v-200q0 -83 58.5 -141.5t141.5 -58.5h200v400zM235 900q-9 8 -18 17q-117 117 -117 283t117 283t283 117t283 -117t117 -283h-200q0 83 -58.5 141.5t-141.5 58.5t-141.5 -58.5t-58.5 -141.5t58.5 -141.5
t141.5 -58.5h600l-100 -200h-152q52 -89 52 -200v-400h100l100 -200h-600q-166 0 -283 117t-117 283v200q0 166 117 283q9 9 18 17z" />
    <glyph glyph-name="parenleft" unicode="(" horiz-adv-x="500" 
d="M300 400q0 -83 58.5 -141.5t141.5 -58.5v-200q-166 0 -283 117t-117 283v800q0 166 117 283t283 117v-200q-83 0 -141.5 -58.5t-58.5 -141.5v-800z" />
    <glyph glyph-name="parenright" unicode=")" horiz-adv-x="500" 
d="M300 1200q0 83 -58.5 141.5t-141.5 58.5v200q166 0 283 -117t117 -283v-800q0 -166 -117 -283t-283 -117v200q83 0 141.5 58.5t58.5 141.5v800z" />
    <glyph glyph-name="asterisk" unicode="*" horiz-adv-x="900" 
d="M400 1383v217h200v-217l182 117l109 -168l-206 -132l206 -132l-109 -168l-182 117v-217h-200v217l-182 -117l-109 168l206 132l-206 132l109 168z" />
    <glyph glyph-name="comma" unicode="," horiz-adv-x="500" 
d="M200 8q-31 11 -56 36q-44 44 -44 106t44 106t106 44t106 -44t44 -106v-250l-200 -200v308z" />
    <glyph glyph-name="period" unicode="." horiz-adv-x="500" 
d="M356 256q44 -44 44 -106t-44 -106t-106 -44t-106 44t-44 106t44 106t106 44t106 -44z" />
    <glyph glyph-name="slash" unicode="/" horiz-adv-x="800" 
d="M-97 0l775 1600h222l-775 -1600h-222z" />
    <glyph glyph-name="colon" unicode=":" horiz-adv-x="500" 
d="M144 744q-44 44 -44 106t44 106t106 44t106 -44t44 -106t-44 -106t-106 -44t-106 44zM144 44q-44 44 -44 106t44 106t106 44t106 -44t44 -106t-44 -106t-106 -44t-106 44z" />
    <glyph glyph-name="semicolon" unicode=";" horiz-adv-x="500" 
d="M144 744q-44 44 -44 106t44 106t106 44t106 -44t44 -106t-44 -106t-106 -44t-106 44zM200 8q-31 11 -56 36q-44 44 -44 106t44 106t106 44t106 -44t44 -106v-250l-200 -200v308z" />
    <glyph glyph-name="semicolon" unicode="&#x37e;" horiz-adv-x="500" 
d="M144 744q-44 44 -44 106t44 106t106 44t106 -44t44 -106t-44 -106t-106 -44t-106 44zM200 8q-31 11 -56 36q-44 44 -44 106t44 106t106 44t106 -44t44 -106v-250l-200 -200v308z" />
    <glyph glyph-name="question" unicode="?" horiz-adv-x="900" 
d="M100 1005l2 -2q103 -103 248 -103t247.5 102.5t102.5 247.5t-102.5 247.5t-247.5 102.5t-248 -102q-1 -2 -2 -3v247q113 58 250 58q228 0 389 -161t161 -389t-161 -389t-389 -161q-25 0 -50 2v-202l-200 -100v605zM350 150q0 -62 -44 -106t-106 -44t-106 44t-44 106
t44 106t106 44t106 -44t44 -106z" />
    <glyph glyph-name="at" unicode="@" horiz-adv-x="1900" 
d="M950 900q-145 0 -247.5 -102.5t-102.5 -247.5t102.5 -247.5t247.5 -102.5t247.5 102.5t102.5 247.5t-102.5 247.5t-247.5 102.5zM1500 0l-200 100v25q-149 -125 -350 -125q-228 0 -389 161t-161 389t161 389t389 161q201 0 350 -125v125h200v-900q83 0 141.5 58.5
t58.5 141.5v700q0 83 -58.5 141.5t-141.5 58.5h-1000q-83 0 -141.5 -58.5t-58.5 -141.5v-1000q0 -83 58.5 -141.5t141.5 -58.5h500v-200h-500q-166 0 -283 117t-117 283v1000q0 166 117 283t283 117h1000q166 0 283 -117t117 -283v-700q0 -166 -117 -283t-283 -117z" />
    <glyph glyph-name="bracketleft" unicode="[" horiz-adv-x="600" 
d="M100 1600h500v-200h-300v-1200h300v-200h-500v1600z" />
    <glyph glyph-name="backslash" unicode="\" horiz-adv-x="800" 
d="M678 0l-775 1600h222l775 -1600h-222z" />
    <glyph glyph-name="bracketright" unicode="]" horiz-adv-x="600" 
d="M600 0h-500v200h300v1200h-300v200h500v-1600z" />
    <glyph glyph-name="asciicircum" unicode="^" horiz-adv-x="1100" 
d="M650 1411l-212 -212l-142 141l354 354l354 -354l-142 -142z" />
    <glyph glyph-name="circumflex" unicode="&#x2c6;" horiz-adv-x="800" 
d="M454 1413l-212 -212l-142 141l354 354l354 -354l-142 -142z" />
    <glyph glyph-name="underscore" unicode="_" horiz-adv-x="1000" 
d="M1000 0v-200h-1000v200h1000z" />
    <glyph glyph-name="grave" unicode="`" horiz-adv-x="500" 
d="M420 1200l-322 257l238 182l164 -378z" />
    <glyph glyph-name="braceleft" unicode="{" horiz-adv-x="600" 
d="M200 1100v100q0 166 117 283t283 117v-200q-83 0 -141.5 -58.5t-58.5 -141.5v-300h-100v-200h100v-300q0 -83 58.5 -141.5t141.5 -58.5v-200q-166 0 -283 117t-117 283v100h-100v600h100z" />
    <glyph glyph-name="bar" unicode="|" horiz-adv-x="800" 
d="M500 1600v-1600l-200 -100v1700h200z" />
    <glyph glyph-name="braceright" unicode="}" horiz-adv-x="600" 
d="M600 1100v-600h-100v-100q0 -166 -117 -283t-283 -117v200q83 0 141.5 58.5t58.5 141.5v300h100v200h-100v300q0 83 -58.5 141.5t-141.5 58.5v200q166 0 283 -117t117 -283v-100h100z" />
    <glyph glyph-name="asciitilde" unicode="~" 
d="M581 1341l-141 -141l-141 141l282 283l142 -141l141 141l142 -141l-283 -283z" />
    <glyph glyph-name="exclamdown" unicode="&#xa1;" horiz-adv-x="300" 
d="M100 -200v1300l200 100v-1400h-200zM98 1344q-44 44 -44 106t44 106t106 44t106 -44t44 -106t-44 -106t-106 -44t-106 44z" />
    <glyph glyph-name="brokenbar" unicode="&#xa6;" horiz-adv-x="800" 
d="M300 900v700h200v-700h-200zM500 600v-600l-200 -100v700h200z" />
    <glyph glyph-name="dieresis" unicode="&#xa8;" horiz-adv-x="1000" 
d="M829.5 1229.5q-29.5 29.5 -29.5 70.5t29.5 70.5t70.5 29.5t70.5 -29.5t29.5 -70.5t-29.5 -70.5t-70.5 -29.5t-70.5 29.5zM329.5 1229.5q-29.5 29.5 -29.5 70.5t29.5 70.5t70.5 29.5t70.5 -29.5t29.5 -70.5t-29.5 -70.5t-70.5 -29.5t-70.5 29.5z" />
    <glyph glyph-name="macron" unicode="&#xaf;" horiz-adv-x="1000" 
d="M1000 1800v-200h-1000v200h1000z" />
    <glyph glyph-name="acute" unicode="&#xb4;" horiz-adv-x="500" 
d="M100 1261l164 378l238 -182l-322 -257z" />
    <glyph glyph-name="cedilla" unicode="&#xb8;" horiz-adv-x="900" 
d="M700 -18l224 -224l-282 -283l-142 141l142 142l-142 141l1 1h-1v300h200v-218z" />
    <glyph glyph-name="questiondown" unicode="&#xbf;" horiz-adv-x="900" 
d="M900 595l-2 2q-103 103 -248 103t-247.5 -102.5t-102.5 -247.5t102.5 -247.5t247.5 -102.5t248 102q1 2 2 3v-247q-113 -58 -250 -58q-228 0 -389 161t-161 389t161 389t389 161q25 0 50 -2v202l200 100v-605zM650 1450q0 62 44 106t106 44t106 -44t44 -106t-44 -106
t-106 -44t-106 44t-44 106z" />
    <glyph glyph-name="tilde" unicode="&#x2dc;" horiz-adv-x="1000" 
d="M581 1341l-141 -141l-141 141l282 283l142 -141l141 141l142 -141l-283 -283z" />
    <glyph glyph-name="quoteleft" unicode="&#x2018;" horiz-adv-x="400" 
d="M300 1592q31 -11 56 -36q44 -44 44 -106t-44 -106t-106 -44t-106 44t-44 106l100 250l100 200v-308z" />
    <glyph glyph-name="quoteright" unicode="&#x2019;" horiz-adv-x="400" 
d="M200 1608q-31 11 -56 36q-44 44 -44 106t44 106t106 44t106 -44t44 -106l-100 -250l-100 -200v308z" />
    <glyph glyph-name="quotesinglbase" unicode="&#x201a;" horiz-adv-x="400" 
d="M200 8q-31 11 -56 36q-44 44 -44 106t44 106t106 44t106 -44t44 -106l-100 -250l-100 -200v308z" />
    <glyph glyph-name="quotedblleft" unicode="&#x201c;" horiz-adv-x="800" 
d="M300 1592q31 -11 56 -36q44 -44 44 -106t-44 -106t-106 -44t-106 44t-44 106l100 250l100 200v-308zM700 1592q31 -11 56 -36q44 -44 44 -106t-44 -106t-106 -44t-106 44t-44 106l100 250l100 200v-308z" />
    <glyph glyph-name="quotedblright" unicode="&#x201d;" horiz-adv-x="800" 
d="M600 1608q-31 11 -56 36q-44 44 -44 106t44 106t106 44t106 -44t44 -106l-100 -250l-100 -200v308zM200 1608q-31 11 -56 36q-44 44 -44 106t44 106t106 44t106 -44t44 -106l-100 -250l-100 -200v308z" />
    <glyph glyph-name="quotedblbase" unicode="&#x201e;" horiz-adv-x="800" 
d="M600 8q-31 11 -56 36q-44 44 -44 106t44 106t106 44t106 -44t44 -106l-100 -250l-100 -200v308zM200 8q-31 11 -56 36q-44 44 -44 106t44 106t106 44t106 -44t44 -106l-100 -250l-100 -200v308z" />
    <glyph glyph-name="guilsinglleft" unicode="&#x2039;" horiz-adv-x="700" 
d="M595 1300l141 -141l-353 -354l353 -354l-141 -141l-495 495z" />
    <glyph glyph-name="guilsinglright" unicode="&#x203a;" horiz-adv-x="700" 
d="M736 805l-495 -495l-141 141l354 354l-354 354l141 141z" />
    <glyph glyph-name="plus" unicode="+" horiz-adv-x="900" 
d="M600 900h300v-200h-300v-300h-200v300h-300v200h300v300h200v-300z" />
    <glyph glyph-name="less" unicode="&#x3c;" horiz-adv-x="800" 
d="M732 1436l142 -141l-494 -496l496 -494l-141 -142l-638 635z" />
    <glyph glyph-name="equal" unicode="=" horiz-adv-x="900" 
d="M900 1100v-200h-800v200h800zM900 700v-200h-800v200h800z" />
    <glyph glyph-name="greater" unicode="&#x3e;" horiz-adv-x="800" 
d="M876 798l-638 -635l-141 142l496 494l-494 496l142 141z" />
    <glyph glyph-name="plusminus" unicode="&#xb1;" horiz-adv-x="900" 
d="M600 1100h300v-200h-300v-300h-200v300h-300v200h300v300h200v-300zM900 400v-200h-800v200h800z" />
    <glyph glyph-name="guillemotleft" unicode="&#xab;" horiz-adv-x="1300" 
d="M732 1436l142 -141l-494 -496l496 -494l-141 -142l-638 635zM1156 1436l142 -141l-494 -496l496 -494l-141 -142l-638 635z" />
    <glyph glyph-name="guillemotright" unicode="&#xbb;" horiz-adv-x="1300" 
d="M1300 798l-638 -635l-141 142l496 494l-494 496l142 141zM876 798l-638 -635l-141 142l496 494l-494 496l142 141z" />
    <glyph glyph-name="multiply" unicode="&#xd7;" horiz-adv-x="800" 
d="M641 800l212 -212l-141 -141l-212 212l-212 -213l-142 142l212 212l-212 212l141 141l213 -212l212 213l141 -142z" />
    <glyph glyph-name="divide" unicode="&#xf7;" horiz-adv-x="900" 
d="M900 900v-200h-800v200h800zM570.5 1270.5q29.5 -29.5 29.5 -70.5t-29.5 -70.5t-70.5 -29.5t-70.5 29.5t-29.5 70.5t29.5 70.5t70.5 29.5t70.5 -29.5zM570.5 470.5q29.5 -29.5 29.5 -70.5t-29.5 -70.5t-70.5 -29.5t-70.5 29.5t-29.5 70.5t29.5 70.5t70.5 29.5t70.5 -29.5
z" />
    <glyph glyph-name="arrowupdnbse" unicode="&#x21a8;" horiz-adv-x="900" 
d="M400 1100l-100 -100l-200 100l400 400l400 -400l-200 -100l-100 100v-600l100 100l200 -100l-400 -400l-400 400l200 100l100 -100v600zM100 0v200h200l200 -133l200 133h200v-200h-800z" />
    <glyph glyph-name="cent" unicode="&#xa2;" horiz-adv-x="1100" 
d="M800 1598q166 -14 300 -122v-298q-15 24 -32 47q-114 151 -268 172v-1194q154 21 268 173q17 22 32 46v-298q-134 -108 -300 -122v-202h-200v220q-174 48 -309 215q-191 234 -191 565t191 566q135 166 309 214v120l200 100v-202zM600 1368q-93 -43 -168 -143
q-132 -176 -132 -425t132 -424q75 -101 168 -144v1136z" />
    <glyph glyph-name="sterling" unicode="&#xa3;" 
d="M200 1600l200 -100v-600h600l-100 -200h-500v-500h800v-200h-1000v700h-100v200h100v700z" />
    <glyph glyph-name="currency" unicode="&#xa4;" horiz-adv-x="1300" 
d="M949 1097q-102 103 -247 103t-248 -102q-102 -103 -102 -248l-1 -1q0 -144 103 -246q102 -103 247 -103t248 102q102 103 103 248v1q0 144 -103 246zM1014 1303l148 148l141 -142l-147 -147q96 -137 96 -313q-1 -176 -97 -312l147 -147l-141 -141l-148 147
q-136 -96 -312 -96t-312 97l-148 -148l-141 142l147 147q-96 137 -96 313q1 176 97 312l-147 147l141 141l148 -147q136 96 312 96t312 -97z" />
    <glyph glyph-name="yen" unicode="&#xa5;" 
d="M483 900h-383v200h274l-274 500h228l324 -592l323 592h228l-273 -500h270l-100 -200h-280l-54 -100h334l-100 -200h-344l-328 -600h-228l329 600h-329v200h438z" />
    <glyph glyph-name="section" unicode="&#xa7;" horiz-adv-x="1000" 
d="M254 1011q-11 10 -22 21q-132 132 -132 318t132 318t318 132q26 0 50 -2v-203q-24 5 -50 5q-104 0 -177 -73t-73 -177t73 -177t177 -73h11q191 0 326 -102.5t135 -247.5t-135 -247q-16 -12 -32 -23q7 -6 13 -12q132 -132 132 -318t-132 -318t-318 -132q-26 0 -50 2v203
q24 -5 50 -5q104 0 177 73t73 177t-73 177t-177 73q-184 3 -315 103q-135 102 -135 247t135 248q9 7 19 13zM550 900q-104 0 -177 -44t-73 -106t73 -106t177 -44t177 44t73 106t-73 106t-177 44z" />
    <glyph glyph-name="copyright" unicode="&#xa9;" horiz-adv-x="1700" 
d="M1200 1025q-1 1 -2 3q-103 102 -248 102t-247.5 -102.5t-102.5 -247.5t102.5 -247.5t247.5 -102.5t248 103l2 2v-247q-113 -58 -250 -58q-228 0 -389 161t-161 389t161 389t389 161q137 0 250 -58v-247zM1465.5 1365.5q234.5 -234.5 234.5 -565.5t-234.5 -565.5
t-565.5 -234.5t-565.5 234.5t-234.5 565.5t234.5 565.5t565.5 234.5t565.5 -234.5zM900 1400q-249 0 -424.5 -181.5t-175.5 -438.5t175.5 -438.5t424.5 -181.5t424.5 181.5t175.5 438.5t-175.5 438.5t-424.5 181.5z" />
    <glyph glyph-name="logicalnot" unicode="&#xac;" 
d="M1200 600l-200 -100v300h-900v200h1100v-400z" />
    <glyph glyph-name="registered" unicode="&#xae;" horiz-adv-x="1700" 
d="M1465.5 1365.5q234.5 -234.5 234.5 -565.5t-234.5 -565.5t-565.5 -234.5t-565.5 234.5t-234.5 565.5t234.5 565.5t565.5 234.5t565.5 -234.5zM900 1400q-249 0 -424.5 -181.5t-175.5 -438.5t175.5 -438.5t424.5 -181.5t424.5 181.5t175.5 438.5t-175.5 438.5
t-424.5 181.5zM900 1175q130 109 300 123v-201q-113 -15 -197 -99q-85 -85 -102 -198l-1 -600h-200v1100l200 -100v-25z" />
    <glyph glyph-name="degree" unicode="&#xb0;" horiz-adv-x="800" 
d="M697.5 1597.5q102.5 -102.5 102.5 -247.5t-102.5 -247.5t-247.5 -102.5t-247.5 102.5t-102.5 247.5t102.5 247.5t247.5 102.5t247.5 -102.5zM450 1500q-62 0 -106 -44t-44 -106t44 -106t106 -44t106 44t44 106t-44 106t-106 44z" />
    <glyph glyph-name="mu" unicode="&#xb5;" 
d="M300 548q1 -144 102 -246q103 -102 248 -102t247 102t103 246v552h200v-1100l-200 100v25q-149 -125 -350 -125t-350 125v-525h-200v1500h200v-552z" />
    <glyph glyph-name="paragraph" unicode="&#xb6;" horiz-adv-x="1300" 
d="M1100 1400v-1400l-200 100v1300h-300v-1400h-200v640q-84 37 -153 107q-147 146 -147 353t146.5 353.5t353.5 146.5h700l-100 -200h-100z" />
    <glyph glyph-name="periodcentered" unicode="&#xb7;" horiz-adv-x="500" 
d="M356 856q44 -44 44 -106t-44 -106t-106 -44t-106 44t-44 106t44 106t106 44t106 -44z" />
    <glyph glyph-name="periodcentered" unicode="&#x2219;" horiz-adv-x="500" 
d="M356 856q44 -44 44 -106t-44 -106t-106 -44t-106 44t-44 106t44 106t106 44t106 -44z" />
    <glyph glyph-name="dagger" unicode="&#x2020;" horiz-adv-x="900" 
d="M400 1600v200h200v-200h300v-200h-300v-900l-200 -100v1000h-300v200h300z" />
    <glyph glyph-name="daggerdbl" unicode="&#x2021;" horiz-adv-x="900" 
d="M400 1400h-300v200h300v200h200v-200h300v-200h-300v-1000h300v-200h-300v-200h-200v200h-300v200h300v1000z" />
    <glyph glyph-name="bullet" unicode="&#x2022;" horiz-adv-x="1000" 
d="M883 1083q117 -117 117 -283t-117 -283t-283 -117t-283 117t-117 283t117 283t283 117t283 -117z" />
    <glyph glyph-name="ellipsis" unicode="&#x2026;" horiz-adv-x="1500" 
d="M356 256q44 -44 44 -106t-44 -106t-106 -44t-106 44t-44 106t44 106t106 44t106 -44zM1356 256q44 -44 44 -106t-44 -106t-106 -44t-106 44t-44 106t44 106t106 44t106 -44zM856 256q44 -44 44 -106t-44 -106t-106 -44t-106 44t-44 106t44 106t106 44t106 -44z" />
    <glyph glyph-name="perthousand" unicode="&#x2030;" horiz-adv-x="2000" 
d="M400 1400q-41 0 -70.5 -29.5t-29.5 -70.5t29.5 -70.5t70.5 -29.5t70.5 29.5t29.5 70.5t-29.5 70.5t-70.5 29.5zM1212 512q88 -88 88 -212t-88 -212t-212 -88t-212 88t-88 212t88 212t212 88t212 -88zM1000 400q-41 0 -70.5 -29.5t-29.5 -70.5t29.5 -70.5t70.5 -29.5
t70.5 29.5t29.5 70.5t-29.5 70.5t-70.5 29.5zM1295 1600l-959 -1600h-233l839 1400h-258q16 -47 16 -100q0 -124 -88 -212t-212 -88t-212 88t-88 212t88 212t212 88h895zM1912 512q88 -88 88 -212t-88 -212t-212 -88t-212 88t-88 212t88 212t212 88t212 -88zM1700 400
q-41 0 -70.5 -29.5t-29.5 -70.5t29.5 -70.5t70.5 -29.5t70.5 29.5t29.5 70.5t-29.5 70.5t-70.5 29.5z" />
    <glyph glyph-name="Euro" unicode="&#x20ac;" 
d="M231 1050q45 175 160 316q190 234 459 234q196 0 350 -124v-298q-15 24 -32 47q-132 175 -318 175t-318 -175q-60 -80 -93 -175h661l-100 -200h-599q-1 -25 -1 -50t1 -50h599l-100 -200h-461q33 -95 93 -174q132 -176 318 -176t318 176q17 22 32 46v-298
q-154 -124 -350 -124q-269 0 -459 235q-115 140 -160 315h-131v200h101q-1 25 -1 50t1 50h-101v200h131z" />
    <glyph glyph-name="zero" unicode="0" horiz-adv-x="1300" 
d="M1124.5 1365.5q175.5 -234.5 175.5 -565.5t-175.5 -565.5t-424.5 -234.5t-424.5 234.5t-175.5 565.5t175.5 565.5t424.5 234.5t424.5 -234.5zM700 1400q-166 0 -283 -175.5t-117 -424.5t117 -424.5t283 -175.5t283 175.5t117 424.5t-117 424.5t-283 175.5zM975 1107
l-373 -707l-177 93l373 707z" />
    <glyph glyph-name="onequarter" unicode="&#xbc;" horiz-adv-x="1400" 
d="M200 1400h-100v200h300v-800h-200v600zM800 400h200v-300h200v300h200v-800h-200v300h-400v500zM700 1700v-2200h-200v2200h200z" />
    <glyph glyph-name="onehalf" unicode="&#xbd;" horiz-adv-x="1400" 
d="M200 1400h-100v200h300v-800h-200v600zM1000 -200h400v-200h-600v500h400v100h-200v200h400v-500h-400v-100zM700 1700v-2200h-200v2200h200z" />
    <glyph glyph-name="threequarters" unicode="&#xbe;" horiz-adv-x="1700" 
d="M100 1400v200h600v-800h-600v200h400v100h-200v200h200v100h-400zM1000 1700v-2200h-200v2200h200zM1100 400h200v-300h200v300h200v-800h-200v300h-400v500z" />
    <glyph glyph-name="one" unicode="1" horiz-adv-x="500" 
d="M300 1400h-200l100 200h300v-1600h-200v1400z" />
    <glyph glyph-name="uni00B9" unicode="&#xb9;" horiz-adv-x="400" 
d="M200 1500h-100v200h300v-800h-200v600z" />
    <glyph glyph-name="two" unicode="2" horiz-adv-x="1000" 
d="M551 900q103 0 176 73t73 177t-73 177t-177 73t-177 -73t-73 -177v-1h-200v1q0 186 132 318t318 132t318 -132t132 -318t-132 -318t-317 -132h-1q-104 0 -177 -73t-73 -176v-251h600l100 -200h-900v451q0 185 132 317t318 132h1z" />
    <glyph glyph-name="uni00B2" unicode="&#xb2;" horiz-adv-x="700" 
d="M300 1100h400v-200h-600v500h400v100h-200v200h400v-500h-400v-100z" />
    <glyph glyph-name="three" unicode="3" horiz-adv-x="1000" 
d="M703 1400h-503l-100 200h900l-295 -726q90 -33 163 -106q132 -132 132 -318t-132 -318t-318 -132t-318 132t-132 318v1h200v-1q0 -104 73 -177t177 -73t177 73t73 177t-73 177q-43 43 -98 61l-43 -107l-186 75z" />
    <glyph glyph-name="uni00B3" unicode="&#xb3;" horiz-adv-x="700" 
d="M100 1500v200h600v-800h-600v200h400v100h-200v200h200v100h-400z" />
    <glyph glyph-name="four" unicode="4" horiz-adv-x="1000" 
d="M800 900v600l200 100v-1600h-200v700h-700l7 13l376 887h217l-297 -700h397z" />
    <glyph glyph-name="five" unicode="5" horiz-adv-x="1000" 
d="M1000 1600l-100 -200h-522l-56 -500h229q185 0 317 -132t132 -318t-132 -318t-318 -132t-318 132t-132 317h200q0 -103 73 -176t177 -73t177 73t73 177t-73 177t-176 73h-451l101 922h1l-2 -22h800z" />
    <glyph glyph-name="six" unicode="6" horiz-adv-x="1000" 
d="M300 449q0 -103 73 -176t177 -73t177 73t73 176v1q0 104 -73 177t-177 73t-177 -73t-73 -177v-1zM100 1150q0 186 132 318t318 132h150l-100 -200h-50q-104 0 -177 -73t-73 -177v-325q110 75 250 75q186 0 318 -132t132 -318v-1q0 -185 -132 -317t-318 -132t-318 132
t-132 317v701z" />
    <glyph glyph-name="seven" unicode="7" horiz-adv-x="1000" 
d="M1000 1600l-85 -200l-597 -1400h-217l597 1400h-498l-100 200h900z" />
    <glyph glyph-name="eight" unicode="8" horiz-adv-x="1000" 
d="M550 1400q-104 0 -177 -73t-73 -177t73 -177t177 -73t177 73t73 177t-73 177t-177 73zM550 700q-104 0 -177 -73t-73 -177t73 -177t177 -73t177 73t73 177t-73 177t-177 73zM267 800q-18 15 -35 32q-132 132 -132 318t132 318t318 132t318 -132t132 -318t-132 -318
q-17 -17 -35 -32q18 -15 35 -32q132 -132 132 -318t-132 -318t-318 -132t-318 132t-132 318t132 318q17 17 35 32z" />
    <glyph glyph-name="nine" unicode="9" horiz-adv-x="1000" 
d="M800 1151q0 103 -73 176t-177 73t-177 -73t-73 -176v-1q0 -104 73 -177t177 -73t177 73t73 177v1zM1000 450q0 -186 -132 -318t-318 -132h-150l100 200h50q104 0 177 73t73 177v325q-110 -75 -250 -75q-186 0 -318 132t-132 318v1q0 185 132 317t318 132t318 -132
t132 -317v-701z" />
    <glyph glyph-name="a" unicode="a" 
d="M650 900q-145 0 -247.5 -102.5t-102.5 -247.5t102.5 -247.5t247.5 -102.5t247.5 102.5t102.5 247.5t-102.5 247.5t-247.5 102.5zM1000 125q-149 -125 -350 -125q-228 0 -389 161t-161 389t161 389t389 161q201 0 350 -125v125h200v-1100l-200 100v25z" />
    <glyph glyph-name="A" unicode="A" horiz-adv-x="1500" 
d="M800 1327l-193 -527h387zM533 600l-220 -600h-213l601 1597l-1 3h200l-1 -3l601 -1597h-213l-220 600h-534z" />
    <glyph glyph-name="ordfeminine" unicode="&#xaa;" horiz-adv-x="800" 
d="M448 1498q-61 0 -104.5 -43t-43.5 -103t43.5 -103t104.5 -43t104.5 43t43.5 103t-43.5 103t-104.5 43zM600 1034q-68 -32 -150 -32q-145 0 -247.5 102t-102.5 247t102.5 247t247.5 102q82 0 150 -32v32h200v-700h-200v34z" />
    <glyph glyph-name="aacute" unicode="&#xe1;" 
d="M650 900q-145 0 -247.5 -102.5t-102.5 -247.5t102.5 -247.5t247.5 -102.5t247.5 102.5t102.5 247.5t-102.5 247.5t-247.5 102.5zM1000 125q-149 -125 -350 -125q-228 0 -389 161t-161 389t161 389t389 161q201 0 350 -125v125h200v-1100l-200 100v25zM598 1261l164 378
l238 -182l-322 -257z" />
    <glyph glyph-name="Aacute" unicode="&#xc1;" horiz-adv-x="1500" 
d="M800 1327l-193 -527h387zM533 600l-220 -600h-213l601 1597l-1 3h200l-1 -3l601 -1597h-213l-220 600h-534zM798 1761l164 378l238 -182l-322 -257z" />
    <glyph glyph-name="agrave" unicode="&#xe0;" 
d="M650 900q-145 0 -247.5 -102.5t-102.5 -247.5t102.5 -247.5t247.5 -102.5t247.5 102.5t102.5 247.5t-102.5 247.5t-247.5 102.5zM1000 125q-149 -125 -350 -125q-228 0 -389 161t-161 389t161 389t389 161q201 0 350 -125v125h200v-1100l-200 100v25zM621 1200l-323 257
l238 182l164 -378z" />
    <glyph glyph-name="Agrave" unicode="&#xc0;" horiz-adv-x="1500" 
d="M800 1327l-193 -527h387zM533 600l-220 -600h-213l601 1597l-1 3h200l-1 -3l601 -1597h-213l-220 600h-534zM720 1700l-322 257l238 182l164 -378z" />
    <glyph glyph-name="acircumflex" unicode="&#xe2;" 
d="M650 900q-145 0 -247.5 -102.5t-102.5 -247.5t102.5 -247.5t247.5 -102.5t247.5 102.5t102.5 247.5t-102.5 247.5t-247.5 102.5zM1000 125q-149 -125 -350 -125q-228 0 -389 161t-161 389t161 389t389 161q201 0 350 -125v125h200v-1100l-200 100v25zM650 1411l-212 -212
l-142 141l354 354l354 -354l-142 -142z" />
    <glyph glyph-name="Acircumflex" unicode="&#xc2;" horiz-adv-x="1500" 
d="M800 1327l-193 -527h387zM533 600l-220 -600h-213l601 1597l-1 3h200l-1 -3l601 -1597h-213l-220 600h-534zM800 1913l-212 -212l-142 141l354 354l354 -354l-142 -142z" />
    <glyph glyph-name="adieresis" unicode="&#xe4;" 
d="M650 900q-145 0 -247.5 -102.5t-102.5 -247.5t102.5 -247.5t247.5 -102.5t247.5 102.5t102.5 247.5t-102.5 247.5t-247.5 102.5zM1000 125q-149 -125 -350 -125q-228 0 -389 161t-161 389t161 389t389 161q201 0 350 -125v125h200v-1100l-200 100v25zM829.5 1229.5
q-29.5 29.5 -29.5 70.5t29.5 70.5t70.5 29.5t70.5 -29.5t29.5 -70.5t-29.5 -70.5t-70.5 -29.5t-70.5 29.5zM329.5 1229.5q-29.5 29.5 -29.5 70.5t29.5 70.5t70.5 29.5t70.5 -29.5t29.5 -70.5t-29.5 -70.5t-70.5 -29.5t-70.5 29.5z" />
    <glyph glyph-name="Adieresis" unicode="&#xc4;" horiz-adv-x="1500" 
d="M800 1327l-193 -527h387zM533 600l-220 -600h-213l601 1597l-1 3h200l-1 -3l601 -1597h-213l-220 600h-534zM977.5 1729.5q-29.5 29.5 -29.5 70.5t29.5 70.5t70.5 29.5t70.5 -29.5t29.5 -70.5t-29.5 -70.5t-70.5 -29.5t-70.5 29.5zM477.5 1729.5q-29.5 29.5 -29.5 70.5
t29.5 70.5t70.5 29.5t70.5 -29.5t29.5 -70.5t-29.5 -70.5t-70.5 -29.5t-70.5 29.5z" />
    <glyph glyph-name="atilde" unicode="&#xe3;" 
d="M650 900q-145 0 -247.5 -102.5t-102.5 -247.5t102.5 -247.5t247.5 -102.5t247.5 102.5t102.5 247.5t-102.5 247.5t-247.5 102.5zM1000 125q-149 -125 -350 -125q-228 0 -389 161t-161 389t161 389t389 161q201 0 350 -125v125h200v-1100l-200 100v25zM581 1341l-141 -141
l-141 141l282 283l142 -141l141 141l142 -141l-283 -283z" />
    <glyph glyph-name="Atilde" unicode="&#xc3;" horiz-adv-x="1500" 
d="M800 1327l-193 -527h387zM533 600l-220 -600h-213l601 1597l-1 3h200l-1 -3l601 -1597h-213l-220 600h-534zM678 1841l-141 -141l-141 141l282 283l142 -141l141 141l142 -141l-283 -283z" />
    <glyph glyph-name="aring" unicode="&#xe5;" 
d="M650 900q-145 0 -247.5 -102.5t-102.5 -247.5t102.5 -247.5t247.5 -102.5t247.5 102.5t102.5 247.5t-102.5 247.5t-247.5 102.5zM1000 125q-149 -125 -350 -125q-228 0 -389 161t-161 389t161 389t389 161q201 0 350 -125v125h200v-1100l-200 100v25zM438 1288
q-88 88 -88 212t88 212t212 88t212 -88t88 -212t-88 -212t-212 -88t-212 88zM650 1600q-41 0 -70.5 -29.5t-29.5 -70.5t29.5 -70.5t70.5 -29.5t70.5 29.5t29.5 70.5t-29.5 70.5t-70.5 29.5z" />
    <glyph glyph-name="Aring" unicode="&#xc5;" horiz-adv-x="1500" 
d="M800 1327l-193 -527h387zM533 600l-220 -600h-213l601 1597l-1 3h200l-1 -3l601 -1597h-213l-220 600h-534zM588 1788q-88 88 -88 212t88 212t212 88t212 -88t88 -212t-88 -212t-212 -88t-212 88zM800 2100q-41 0 -70.5 -29.5t-29.5 -70.5t29.5 -70.5t70.5 -29.5
t70.5 29.5t29.5 70.5t-29.5 70.5t-70.5 29.5z" />
    <glyph glyph-name="ae" unicode="&#xe6;" horiz-adv-x="2100" 
d="M1200 125v-125l-200 100v25q-149 -125 -350 -125q-228 0 -389 161t-161 389t161 389t389 161q201 0 350 -125v125h200v-125q149 125 350 125q228 0 389 -161t161 -389q0 -21 -1 -42l1 -8h-897q15 -113 100 -197q102 -103 247 -103t248 103l2 2v-247q-113 -58 -250 -58
q-201 0 -350 125zM650 900q-145 0 -247.5 -102.5t-102.5 -247.5t102.5 -247.5t247.5 -102.5t247.5 102.5t102.5 247.5t-102.5 247.5t-247.5 102.5zM1867 700q-25 53 -69 98q-103 102 -248 102t-247 -102q-45 -45 -70 -98h634z" />
    <glyph glyph-name="AE" unicode="&#xc6;" horiz-adv-x="2300" 
d="M800 1327l-193 -527h387zM1287 0l-220 600h-534l-220 -600h-213l601 1597l-1 3h200l-1 -3l401 -1066v1069h1000v-200h-800v-500h600l-100 -200h-500v-500h800v-200h-1013z" />
    <glyph glyph-name="b" unicode="b" 
d="M650 900q-145 0 -247.5 -102.5t-102.5 -247.5t102.5 -247.5t247.5 -102.5t247.5 102.5t102.5 247.5t-102.5 247.5t-247.5 102.5zM300 975q149 125 350 125q228 0 389 -161t161 -389t-161 -389t-389 -161q-201 0 -350 125v-25l-200 -100v1600h200v-625z" />
    <glyph glyph-name="B" unicode="B" horiz-adv-x="1000" 
d="M300 1400v-500h252q103 1 175 73q73 73 73 177t-73 177q-72 72 -175 73h-252zM552 700h-252v-500h252q103 1 175 73q73 73 73 177t-73 177q-72 72 -175 73zM552 0h-452v1600h452q185 -1 316 -132q132 -132 132 -318t-132 -318q-17 -17 -35 -32q18 -15 35 -32
q132 -132 132 -318t-132 -318q-131 -131 -316 -132z" />
    <glyph glyph-name="c" unicode="c" horiz-adv-x="900" 
d="M900 795q-1 1 -2 3q-103 102 -248 102t-247.5 -102.5t-102.5 -247.5t102.5 -247.5t247.5 -102.5t248 103l2 2v-247q-113 -58 -250 -58q-228 0 -389 161t-161 389t161 389t389 161q137 0 250 -58v-247z" />
    <glyph glyph-name="C" unicode="C" horiz-adv-x="1100" 
d="M1100 1178q-15 24 -32 47q-132 175 -318 175t-318 -175.5t-132 -424.5t132 -424.5t318 -175.5t318 176q17 22 32 46v-298q-154 -124 -350 -124q-269 0 -459.5 234.5t-190.5 565.5t190.5 565.5t459.5 234.5q196 0 350 -124v-298z" />
    <glyph glyph-name="ccedilla" unicode="&#xe7;" horiz-adv-x="900" 
d="M500 19q-134 37 -239 142q-161 161 -161 389t161 389t389 161q137 0 250 -58v-247q-1 1 -2 3q-103 102 -248 102t-247.5 -102.5t-102.5 -247.5t102.5 -247.5t247.5 -102.5t248 103l2 2v-247q-92 -47 -200 -56v-20l224 -224l-282 -283l-142 141l142 142l-142 141l1 1h-1
v119z" />
    <glyph glyph-name="Ccedilla" unicode="&#xc7;" horiz-adv-x="1100" 
d="M700 2q-237 20 -409 233q-191 234 -191 565t190.5 565.5t459.5 234.5q196 0 350 -124v-298q-15 24 -32 47q-132 175 -318 175t-318 -175.5t-132 -424.5t132 -424.5t318 -175.5t318 176q17 22 32 46v-298q-92 -74 -200 -104v-38l224 -224l-282 -283l-142 141l142 142
l-142 141l1 1h-1v102z" />
    <glyph glyph-name="d" unicode="d" 
d="M402.5 797.5q-102.5 -102.5 -102.5 -247.5t102.5 -247.5t247.5 -102.5t247.5 102.5t102.5 247.5t-102.5 247.5t-247.5 102.5t-247.5 -102.5zM1000 1600h200v-1600l-200 100v25q-149 -125 -350 -125q-228 0 -389 161t-161 389t161 389t389 161q201 0 350 -125v625z" />
    <glyph glyph-name="D" unicode="D" horiz-adv-x="1300" 
d="M400 1400v-1200h250q186 0 318 175.5t132 424.5t-132 424.5t-318 175.5h-250zM200 1600h450q269 0 459.5 -234.5t190.5 -565.5t-190.5 -565.5t-459.5 -234.5h-450v1400h-100z" />
    <glyph glyph-name="eth" unicode="&#xf0;" 
d="M300 550q0 -145 102.5 -247.5t247.5 -102.5t247.5 102.5t102.5 247.5t-102.5 247.5t-247.5 102.5t-247.5 -102.5t-102.5 -247.5zM1000 1500v200h200v-200h100v-200h-100v-1300l-200 100v25q-149 -125 -350 -125q-228 0 -389 161t-161 389t161 389t389 161q201 0 350 -125
v325h-100l-100 200h200z" />
    <glyph glyph-name="Eth" unicode="&#xd0;" horiz-adv-x="1300" 
d="M200 900v500h-100l100 200h450q269 0 459.5 -234.5t190.5 -565.5t-190.5 -565.5t-459.5 -234.5h-450v700h-100v200h100zM400 900h400l-100 -200h-300v-500h250q186 0 318 175.5t132 424.5t-132 424.5t-318 175.5h-250v-500z" />
    <glyph glyph-name="e" unicode="e" 
d="M303 500q15 -113 100 -197q102 -103 247 -103t248 103l2 2v-247q-113 -58 -250 -58q-228 0 -389 161t-161 389t161 389t389 161t389 -161t161 -389q0 -21 -1 -42l1 -8h-897zM967 700q-25 53 -69 98q-103 102 -248 102t-247 -102q-45 -45 -70 -98h634z" />
    <glyph glyph-name="E" unicode="E" horiz-adv-x="1100" 
d="M1100 1600v-200h-800v-500h600l-100 -200h-500v-500h800v-200h-1000v1600h1000z" />
    <glyph glyph-name="eacute" unicode="&#xe9;" 
d="M303 500q15 -113 100 -197q102 -103 247 -103t248 103l2 2v-247q-113 -58 -250 -58q-228 0 -389 161t-161 389t161 389t389 161t389 -161t161 -389q0 -21 -1 -42l1 -8h-897zM967 700q-25 53 -69 98q-103 102 -248 102t-247 -102q-45 -45 -70 -98h634zM598 1261l164 378
l238 -182l-322 -257z" />
    <glyph glyph-name="Eacute" unicode="&#xc9;" horiz-adv-x="1100" 
d="M1100 1600v-200h-800v-500h600l-100 -200h-500v-500h800v-200h-1000v1600h1000zM598 1761l164 378l238 -182l-322 -257z" />
    <glyph glyph-name="egrave" unicode="&#xe8;" 
d="M303 500q15 -113 100 -197q102 -103 247 -103t248 103l2 2v-247q-113 -58 -250 -58q-228 0 -389 161t-161 389t161 389t389 161t389 -161t161 -389q0 -21 -1 -42l1 -8h-897zM967 700q-25 53 -69 98q-103 102 -248 102t-247 -102q-45 -45 -70 -98h634zM621 1200l-323 257
l238 182l164 -378z" />
    <glyph glyph-name="Egrave" unicode="&#xc8;" horiz-adv-x="1100" 
d="M1100 1600v-200h-800v-500h600l-100 -200h-500v-500h800v-200h-1000v1600h1000zM520 1700l-322 257l238 182l164 -378z" />
    <glyph glyph-name="ecircumflex" unicode="&#xea;" 
d="M303 500q15 -113 100 -197q102 -103 247 -103t248 103l2 2v-247q-113 -58 -250 -58q-228 0 -389 161t-161 389t161 389t389 161t389 -161t161 -389q0 -21 -1 -42l1 -8h-897zM967 700q-25 53 -69 98q-103 102 -248 102t-247 -102q-45 -45 -70 -98h634zM650 1411l-212 -212
l-142 141l354 354l354 -354l-142 -142z" />
    <glyph glyph-name="Ecircumflex" unicode="&#xca;" horiz-adv-x="1100" 
d="M600 1913l-212 -212l-142 141l354 354l354 -354l-142 -142zM1100 1600v-200h-800v-500h600l-100 -200h-500v-500h800v-200h-1000v1600h1000z" />
    <glyph glyph-name="edieresis" unicode="&#xeb;" 
d="M303 500q15 -113 100 -197q102 -103 247 -103t248 103l2 2v-247q-113 -58 -250 -58q-228 0 -389 161t-161 389t161 389t389 161t389 -161t161 -389q0 -21 -1 -42l1 -8h-897zM967 700q-25 53 -69 98q-103 102 -248 102t-247 -102q-45 -45 -70 -98h634zM829.5 1229.5
q-29.5 29.5 -29.5 70.5t29.5 70.5t70.5 29.5t70.5 -29.5t29.5 -70.5t-29.5 -70.5t-70.5 -29.5t-70.5 29.5zM329.5 1229.5q-29.5 29.5 -29.5 70.5t29.5 70.5t70.5 29.5t70.5 -29.5t29.5 -70.5t-29.5 -70.5t-70.5 -29.5t-70.5 29.5z" />
    <glyph glyph-name="Edieresis" unicode="&#xcb;" horiz-adv-x="1100" 
d="M1100 1600v-200h-800v-500h600l-100 -200h-500v-500h800v-200h-1000v1600h1000zM779.5 1729.5q-29.5 29.5 -29.5 70.5t29.5 70.5t70.5 29.5t70.5 -29.5t29.5 -70.5t-29.5 -70.5t-70.5 -29.5t-70.5 29.5zM279.5 1729.5q-29.5 29.5 -29.5 70.5t29.5 70.5t70.5 29.5
t70.5 -29.5t29.5 -70.5t-29.5 -70.5t-70.5 -29.5t-70.5 29.5z" />
    <glyph glyph-name="f" unicode="f" horiz-adv-x="700" 
d="M202 1100q16 196 159 339t339 159v-201q-113 -15 -197 -99q-85 -85 -100 -198h297l-100 -200h-200v-900h-200v900h-100v200h102z" />
    <glyph glyph-name="F" unicode="F" horiz-adv-x="1100" 
d="M1100 1600v-200h-800v-500h600l-100 -200h-500v-700h-200v1600h1000z" />
    <glyph glyph-name="florin" unicode="&#x192;" horiz-adv-x="700" 
d="M200 1100h-100v200h102q16 196 159 339t339 159v-201q-113 -15 -197 -99q-85 -85 -100 -198h297l-100 -200h-200v-1000q0 -124 -88 -212t-212 -88v200q41 0 70.5 29.5t29.5 70.5v1000z" />
    <glyph glyph-name="g" unicode="g" 
d="M650 200q145 0 247.5 102.5t102.5 247.5t-102.5 247.5t-247.5 102.5t-247.5 -102.5t-102.5 -247.5t102.5 -247.5t247.5 -102.5zM1000 125q-149 -125 -350 -125q-228 0 -389 161t-161 389t161 389t389 161q201 0 350 -125v25l200 100v-1050q0 -228 -161 -389t-389 -161
q-137 0 -250 58v247q1 -1 3 -2q102 -103 247 -103t247.5 102.5t102.5 247.5v75z" />
    <glyph glyph-name="G" unicode="G" horiz-adv-x="1400" 
d="M1400 800q0 -331 -190.5 -565.5t-459.5 -234.5t-459.5 234.5t-190.5 565.5t190.5 565.5t459.5 234.5q196 0 350 -124v-298q-15 24 -32 47q-132 175 -318 175t-318 -175.5t-132 -424.5t132 -424.5t318 -175.5t318 176q75 100 108 224h-376l-100 200h700z" />
    <glyph glyph-name="h" unicode="h" 
d="M300 0h-200v1500l200 100v-625q149 125 350 125q228 0 389 -161q160 -160 161 -387v-552h-200v550q0 145 -102.5 247.5t-247.5 102.5t-247.5 -102.5t-102.5 -247.5v-550z" />
    <glyph glyph-name="H" unicode="H" 
d="M300 700v-700h-200v1600l200 -100v-600h700v700h200v-1600h-200v700h-700z" />
    <glyph glyph-name="i" unicode="i" horiz-adv-x="400" 
d="M400 1100v-1100h-200v900h-100l100 200h200zM100 1350q0 62 44 106t106 44t106 -44t44 -106t-44 -106t-106 -44t-106 44t-44 106z" />
    <glyph glyph-name="I" unicode="I" horiz-adv-x="500" 
d="M500 1600v-200h-100v-1200h100v-200h-400v200h100v1200h-100l100 200h300z" />
    <glyph glyph-name="iacute" unicode="&#xed;" horiz-adv-x="400" 
d="M400 1100v-1100h-200v900h-100l100 200h200zM200 1261l164 378l238 -182l-322 -257z" />
    <glyph glyph-name="Iacute" unicode="&#xcd;" horiz-adv-x="500" 
d="M500 1600v-200h-100v-1200h100v-200h-400v200h100v1200h-100l100 200h300zM298 1761l164 378l238 -182l-322 -257z" />
    <glyph glyph-name="igrave" unicode="&#xec;" horiz-adv-x="400" 
d="M400 1100v-1100h-200v900h-100l100 200h200zM221 1200l-323 257l238 182l164 -378z" />
    <glyph glyph-name="Igrave" unicode="&#xcc;" horiz-adv-x="500" 
d="M500 1600v-200h-100v-1200h100v-200h-400v200h100v1200h-100l100 200h300zM220 1700l-322 257l238 182l164 -378z" />
    <glyph glyph-name="icircumflex" unicode="&#xee;" horiz-adv-x="400" 
d="M400 1100v-1100h-200v900h-100l100 200h200zM256 1413l-213 -212l-141 141l354 354l353 -354l-141 -142z" />
    <glyph glyph-name="Icircumflex" unicode="&#xce;" horiz-adv-x="500" 
d="M500 1600v-200h-100v-1200h100v-200h-400v200h100v1200h-100l100 200h300zM300 1913l-213 -212l-141 141l354 354l353 -354l-141 -142z" />
    <glyph glyph-name="idieresis" unicode="&#xef;" horiz-adv-x="400" 
d="M400 1100v-1100h-200v900h-100l100 200h200zM329.5 1229.5q-29.5 29.5 -29.5 70.5t29.5 70.5t70.5 29.5t70.5 -29.5t29.5 -70.5t-29.5 -70.5t-70.5 -29.5t-70.5 29.5zM29.5 1229.5q-29.5 29.5 -29.5 70.5t29.5 70.5t70.5 29.5t70.5 -29.5t29.5 -70.5t-29.5 -70.5
t-70.5 -29.5t-70.5 29.5z" />
    <glyph glyph-name="Idieresis" unicode="&#xcf;" horiz-adv-x="500" 
d="M500 1600v-200h-100v-1200h100v-200h-400v200h100v1200h-100l100 200h300zM381.5 1729.5q-29.5 29.5 -29.5 70.5t29.5 70.5t70.5 29.5t70.5 -29.5t29.5 -70.5t-29.5 -70.5t-70.5 -29.5t-70.5 29.5zM81.5 1729.5q-29.5 29.5 -29.5 70.5t29.5 70.5t70.5 29.5t70.5 -29.5
t29.5 -70.5t-29.5 -70.5t-70.5 -29.5t-70.5 29.5z" />
    <glyph glyph-name="j" unicode="j" horiz-adv-x="400" 
d="M100 1350q0 62 44 106t106 44t106 -44t44 -106t-44 -106t-106 -44t-106 44t-44 106zM200 200v700h-100l100 200h200v-1100q-18 -198 -161 -341t-339 -159v201q113 15 197 99q85 85 102 200z" />
    <glyph glyph-name="J" unicode="J" horiz-adv-x="900" 
d="M900 400q0 -166 -117 -283t-283 -117t-283 117t-117 283h200q0 -83 58.5 -141.5t141.5 -58.5t141.5 58.5t58.5 141.5v1100l200 100v-1200z" />
    <glyph glyph-name="k" unicode="k" 
d="M300 199v-199h-200v1500l200 100v-1119l618 619h281l1 -1l-549 -549l549 -550h-282l-408 409z" />
    <glyph glyph-name="K" unicode="K" horiz-adv-x="1300" 
d="M100 1600l200 -100v-604l45 46l2 -2l669 660h284l-811 -800l811 -800h-284l-669 660l-47 -47v-613h-200v1600z" />
    <glyph glyph-name="l" unicode="l" horiz-adv-x="300" 
d="M300 1600v-1600h-200v1500z" />
    <glyph glyph-name="L" unicode="L" horiz-adv-x="1100" 
d="M100 1600l200 -100v-1300h800v-200h-1000v1600z" />
    <glyph glyph-name="m" unicode="m" horiz-adv-x="1700" 
d="M100 1000l200 100v-75q110 75 250 75q186 0 318 -132q17 -17 32 -35q15 18 32 35q132 132 318 132t318 -132q129 -129 132 -310v-658h-200v652q-1 103 -73 175q-73 73 -177 73t-177 -73q-72 -72 -73 -175v-652h-200v652q-1 103 -73 175q-73 73 -177 73t-177 -73
q-72 -72 -73 -175v-652h-200v1000z" />
    <glyph glyph-name="M" unicode="M" horiz-adv-x="1900" 
d="M602 1184l-297 -1184h-205l400 1592l-2 8h209l-2 -8l295 -1176l295 1176l-2 8h209l-2 -8l400 -1592h-205l-297 1184l-296 -1176l2 -8h-208l2 8z" />
    <glyph glyph-name="n" unicode="n" 
d="M100 1000l200 100v-125q149 125 350 125q228 0 389 -161q160 -160 161 -387v-552h-200v552q-1 144 -102 246q-103 102 -248 102t-247 -102t-103 -246v-552h-200v1000z" />
    <glyph glyph-name="N" unicode="N" 
d="M300 1232v-1232h-200v1600h228l672 -1237v1137l200 100v-1600h-230z" />
    <glyph glyph-name="ntilde" unicode="&#xf1;" 
d="M100 1000l200 100v-125q149 125 350 125q228 0 389 -161q160 -160 161 -387v-552h-200v552q-1 144 -102 246q-103 102 -248 102t-247 -102t-103 -246v-552h-200v1000zM581 1341l-141 -141l-141 141l282 283l142 -141l141 141l142 -141l-283 -283z" />
    <glyph glyph-name="Ntilde" unicode="&#xd1;" 
d="M300 1232v-1232h-200v1600h228l672 -1237v1137l200 100v-1600h-230zM579 1841l-141 -141l-141 141l282 283l142 -141l141 141l142 -141l-283 -283z" />
    <glyph glyph-name="o" unicode="o" 
d="M261 161q-161 161 -161 389t161 389t389 161t389 -161t161 -389t-161 -389t-389 -161t-389 161zM650 900q-145 0 -247.5 -102.5t-102.5 -247.5t102.5 -247.5t247.5 -102.5t247.5 102.5t102.5 247.5t-102.5 247.5t-247.5 102.5z" />
    <glyph glyph-name="O" unicode="O" horiz-adv-x="1400" 
d="M1209.5 1365.5q190.5 -234.5 190.5 -565.5t-190.5 -565.5t-459.5 -234.5t-459.5 234.5t-190.5 565.5t190.5 565.5t459.5 234.5t459.5 -234.5zM750 1400q-186 0 -318 -175.5t-132 -424.5t132 -424.5t318 -175.5t318 175.5t132 424.5t-132 424.5t-318 175.5z" />
    <glyph glyph-name="ordmasculine" unicode="&#xba;" horiz-adv-x="800" 
d="M697.5 1598q102.5 -102 102.5 -247t-102.5 -247t-247.5 -102t-247.5 102t-102.5 247t102.5 247t247.5 102t247.5 -102zM448 1498q-61 0 -104.5 -43t-43.5 -103t43.5 -103t104.5 -43t104.5 43t43.5 103t-43.5 103t-104.5 43z" />
    <glyph glyph-name="oacute" unicode="&#xf3;" 
d="M261 161q-161 161 -161 389t161 389t389 161t389 -161t161 -389t-161 -389t-389 -161t-389 161zM650 900q-145 0 -247.5 -102.5t-102.5 -247.5t102.5 -247.5t247.5 -102.5t247.5 102.5t102.5 247.5t-102.5 247.5t-247.5 102.5zM598 1261l164 378l238 -182l-322 -257z" />
    <glyph glyph-name="Oacute" unicode="&#xd3;" horiz-adv-x="1400" 
d="M1209.5 1365.5q190.5 -234.5 190.5 -565.5t-190.5 -565.5t-459.5 -234.5t-459.5 234.5t-190.5 565.5t190.5 565.5t459.5 234.5t459.5 -234.5zM750 1400q-186 0 -318 -175.5t-132 -424.5t132 -424.5t318 -175.5t318 175.5t132 424.5t-132 424.5t-318 175.5zM700 1761
l164 378l238 -182l-322 -257z" />
    <glyph glyph-name="ograve" unicode="&#xf2;" 
d="M261 161q-161 161 -161 389t161 389t389 161t389 -161t161 -389t-161 -389t-389 -161t-389 161zM650 900q-145 0 -247.5 -102.5t-102.5 -247.5t102.5 -247.5t247.5 -102.5t247.5 102.5t102.5 247.5t-102.5 247.5t-247.5 102.5zM621 1200l-323 257l238 182l164 -378z" />
    <glyph glyph-name="Ograve" unicode="&#xd2;" horiz-adv-x="1400" 
d="M750 1600q269 0 459.5 -234.5t190.5 -565.5t-190.5 -565.5t-459.5 -234.5t-459.5 234.5t-190.5 565.5t190.5 565.5t459.5 234.5zM432 1224.5q-132 -175.5 -132 -424.5t132 -424.5t318 -175.5t318 175.5t132 424.5t-132 424.5t-318 175.5t-318 -175.5zM720 1700l-322 257
l238 182l164 -378z" />
    <glyph glyph-name="ocircumflex" unicode="&#xf4;" 
d="M261 161q-161 161 -161 389t161 389t389 161t389 -161t161 -389t-161 -389t-389 -161t-389 161zM650 900q-145 0 -247.5 -102.5t-102.5 -247.5t102.5 -247.5t247.5 -102.5t247.5 102.5t102.5 247.5t-102.5 247.5t-247.5 102.5zM650 1411l-212 -212l-142 141l354 354
l354 -354l-142 -142z" />
    <glyph glyph-name="Ocircumflex" unicode="&#xd4;" horiz-adv-x="1400" 
d="M1209.5 1365.5q190.5 -234.5 190.5 -565.5t-190.5 -565.5t-459.5 -234.5t-459.5 234.5t-190.5 565.5t190.5 565.5t459.5 234.5t459.5 -234.5zM750 1400q-186 0 -318 -175.5t-132 -424.5t132 -424.5t318 -175.5t318 175.5t132 424.5t-132 424.5t-318 175.5zM750 1913
l-212 -212l-142 141l354 354l354 -354l-142 -142z" />
    <glyph glyph-name="odieresis" unicode="&#xf6;" 
d="M261 161q-161 161 -161 389t161 389t389 161t389 -161t161 -389t-161 -389t-389 -161t-389 161zM650 900q-145 0 -247.5 -102.5t-102.5 -247.5t102.5 -247.5t247.5 -102.5t247.5 102.5t102.5 247.5t-102.5 247.5t-247.5 102.5zM829.5 1229.5q-29.5 29.5 -29.5 70.5
t29.5 70.5t70.5 29.5t70.5 -29.5t29.5 -70.5t-29.5 -70.5t-70.5 -29.5t-70.5 29.5zM329.5 1229.5q-29.5 29.5 -29.5 70.5t29.5 70.5t70.5 29.5t70.5 -29.5t29.5 -70.5t-29.5 -70.5t-70.5 -29.5t-70.5 29.5z" />
    <glyph glyph-name="Odieresis" unicode="&#xd6;" horiz-adv-x="1400" 
d="M1209.5 1365.5q190.5 -234.5 190.5 -565.5t-190.5 -565.5t-459.5 -234.5t-459.5 234.5t-190.5 565.5t190.5 565.5t459.5 234.5t459.5 -234.5zM750 1400q-186 0 -318 -175.5t-132 -424.5t132 -424.5t318 -175.5t318 175.5t132 424.5t-132 424.5t-318 175.5zM929.5 1729.5
q-29.5 29.5 -29.5 70.5t29.5 70.5t70.5 29.5t70.5 -29.5t29.5 -70.5t-29.5 -70.5t-70.5 -29.5t-70.5 29.5zM429.5 1729.5q-29.5 29.5 -29.5 70.5t29.5 70.5t70.5 29.5t70.5 -29.5t29.5 -70.5t-29.5 -70.5t-70.5 -29.5t-70.5 29.5z" />
    <glyph glyph-name="otilde" unicode="&#xf5;" 
d="M261 161q-161 161 -161 389t161 389t389 161t389 -161t161 -389t-161 -389t-389 -161t-389 161zM650 900q-145 0 -247.5 -102.5t-102.5 -247.5t102.5 -247.5t247.5 -102.5t247.5 102.5t102.5 247.5t-102.5 247.5t-247.5 102.5zM581 1341l-141 -141l-141 141l282 283
l142 -141l141 141l142 -141l-283 -283z" />
    <glyph glyph-name="Otilde" unicode="&#xd5;" horiz-adv-x="1400" 
d="M1209.5 1365.5q190.5 -234.5 190.5 -565.5t-190.5 -565.5t-459.5 -234.5t-459.5 234.5t-190.5 565.5t190.5 565.5t459.5 234.5t459.5 -234.5zM750 1400q-186 0 -318 -175.5t-132 -424.5t132 -424.5t318 -175.5t318 175.5t132 424.5t-132 424.5t-318 175.5zM678 1841
l-141 -141l-141 141l282 283l142 -141l141 141l142 -141l-283 -283z" />
    <glyph glyph-name="oslash" unicode="&#xf8;" 
d="M817 859q-75 41 -167 41q-145 0 -247.5 -102.5t-102.5 -247.5q0 -92 41 -167zM958 717l-475 -475q75 -42 167 -42q145 0 247.5 102.5t102.5 247.5q0 92 -42 167zM196 237q-96 137 -96 313q0 228 161 389t389 161q176 0 312 -96l96 96l142 -141l-96 -96q96 -137 96 -313
q0 -228 -161 -389t-389 -161q-176 0 -313 96l-96 -96l-141 141z" />
    <glyph glyph-name="Oslash" unicode="&#xd8;" horiz-adv-x="1400" 
d="M976 1321q-101 79 -226 79q-186 0 -318 -175.5t-132 -424.5q0 -206 91 -362zM526 278q100 -78 224 -78q186 0 318 175.5t132 424.5q0 205 -90 361zM1229 1340q171 -226 171 -540q0 -331 -190.5 -565.5t-459.5 -234.5q-186 0 -335 112l-148 -224l-167 111l172 259
q-172 228 -172 542q0 331 190.5 565.5t459.5 234.5q187 0 336 -113l148 223l167 -110z" />
    <glyph glyph-name="oe" unicode="&#x153;" horiz-adv-x="2100" 
d="M650 900q-145 0 -247.5 -102.5t-102.5 -247.5t102.5 -247.5t247.5 -102.5t247.5 102.5t102.5 247.5t-102.5 247.5t-247.5 102.5zM1867 700q-25 53 -69 98q-103 102 -248 102t-247 -102q-45 -45 -70 -98h634zM1100 232q-27 -37 -61 -71q-161 -161 -389 -161t-389 161
t-161 389t161 389t389 161t389 -161q34 -34 61 -71q27 37 61 71q161 161 389 161t389 -161t161 -389q0 -21 -1 -42l1 -8h-897q15 -113 100 -197q102 -103 247 -103t248 103l2 2v-247q-113 -58 -250 -58q-228 0 -389 161q-34 34 -61 71z" />
    <glyph glyph-name="OE" unicode="&#x152;" horiz-adv-x="2200" 
d="M750 1400q-186 0 -318 -175.5t-132 -424.5t132 -424.5t318 -175.5t318 175.5t132 424.5t-132 424.5t-318 175.5zM1200 223q-188 -223 -450 -223q-269 0 -459.5 234.5t-190.5 565.5t190.5 565.5t459.5 234.5q262 0 450 -223v223h1000v-200h-800v-500h600l-100 -200h-500
v-500h800v-200h-1000v223z" />
    <glyph glyph-name="p" unicode="p" 
d="M897.5 302.5q102.5 102.5 102.5 247.5t-102.5 247.5t-247.5 102.5t-247.5 -102.5t-102.5 -247.5t102.5 -247.5t247.5 -102.5t247.5 102.5zM300 -500h-200v1600l200 -100v-25q149 125 350 125q228 0 389 -161t161 -389t-161 -389t-389 -161q-201 0 -350 125v-625z" />
    <glyph glyph-name="P" unicode="P" horiz-adv-x="1000" 
d="M300 1400v-500h250q104 0 177 73t73 177t-73 177t-177 73h-250zM100 1600h450q186 0 318 -132t132 -318t-132 -318t-318 -132h-250v-700h-200v1400h-100z" />
    <glyph glyph-name="q" unicode="q" 
d="M650 200q145 0 247.5 102.5t102.5 247.5t-102.5 247.5t-247.5 102.5t-247.5 -102.5t-102.5 -247.5t102.5 -247.5t247.5 -102.5zM1000 125q-149 -125 -350 -125q-228 0 -389 161t-161 389t161 389t389 161q201 0 350 -125v25l200 100v-1600h-200v625z" />
    <glyph glyph-name="Q" unicode="Q" horiz-adv-x="1400" 
d="M1030 330q19 21 38 46q132 175 132 424t-132 424.5t-318 175.5t-318 -175.5t-132 -424.5t132 -424.5t318 -175.5q59 0 113 18l-163 282l173 100zM965 43q-100 -43 -215 -43q-269 0 -459.5 234.5t-190.5 565.5t190.5 565.5t459.5 234.5t459.5 -234.5t190.5 -565.5
t-190 -565q-38 -46 -78 -83l142 -244l-173 -100z" />
    <glyph glyph-name="r" unicode="r" horiz-adv-x="600" 
d="M300 975q130 109 300 123v-201q-113 -15 -197 -99q-85 -85 -102 -198l-1 -600h-200v1100l200 -100v-25z" />
    <glyph glyph-name="R" unicode="R" horiz-adv-x="1000" 
d="M100 1600h450q186 0 318 -132t132 -318t-132 -318q-103 -103 -240 -126l372 -706h-226l-462 900h238q104 0 177 73t73 177t-73 177t-177 73h-250v-1400h-200v1400h-100z" />
    <glyph glyph-name="s" unicode="s" horiz-adv-x="752" 
d="M432 648q131 -2 225 -95q95 -95 95 -229t-95.5 -229t-230.5 -95t-230 95q-94 93 -96 223h200q2 -47 37 -82q37 -36 89 -36t89 36.5t37 87.5t-37 88q-35 34 -95 42v-2q-131 2 -224 95q-96 95 -96 229t95.5 229t230.5 95t230 -95l94 -93l-198 -130q-2 47 -37 82
q-37 36 -89 36t-89 -36.5t-37 -87.5t37 -87q35 -35 95 -41z" />
    <glyph glyph-name="S" unicode="S" horiz-adv-x="1000" 
d="M550 700q-186 0 -318 132t-132 318t132 318t318 132t318 -132t132 -318v-1h-200v1q0 104 -73 177t-177 73t-177 -73t-73 -177t73 -177t177 -73q186 0 318 -132t132 -318t-132 -318t-318 -132t-318 132t-132 318v1h200v-1q0 -104 73 -177t177 -73t177 73t73 177t-73 177
t-177 73z" />
    <glyph glyph-name="germandbls" unicode="&#xdf;" horiz-adv-x="1000" 
d="M820 790l180 -390q0 -186 -132 -318t-318 -132h-1v200h1q104 0 177 75q70 72 70 131v5l-159 347q-42 -8 -88 -8h-1v200h1q104 0 177 73t73 177t-73 177t-177 73t-177 -73t-73 -177v-1150h-200v1151q0 185 132 317t318 132t318 -132t132 -318t-132 -318q-23 -23 -48 -42z
" />
    <glyph glyph-name="t" unicode="t" horiz-adv-x="700" 
d="M300 1100v400l200 100v-500h200v-200h-200v-900h-200v900h-200v200h200z" />
    <glyph glyph-name="T" unicode="T" horiz-adv-x="1100" 
d="M500 1400h-400l100 200h900v-200h-400v-1400h-200v1400z" />
    <glyph glyph-name="thorn" unicode="&#xfe;" 
d="M650 950q-145 0 -247.5 -102.5t-102.5 -247.5t102.5 -247.5t247.5 -102.5t247.5 102.5t102.5 247.5t-102.5 247.5t-247.5 102.5zM300 1025q149 125 350 125q228 0 389 -161t161 -389t-161 -389t-389 -161q-201 0 -350 125v-575h-200v2000h200v-575z" />
    <glyph glyph-name="Thorn" unicode="&#xde;" horiz-adv-x="1100" 
d="M300 1043v-490l2 -2q103 -103 248 -103t247.5 102.5t102.5 247.5t-102.5 247.5t-247.5 102.5t-248 -102q-1 -2 -2 -3zM300 306v-306h-200v1600h200v-310q113 58 250 58q228 0 389 -161t161 -389t-161 -389t-389 -161q-137 0 -250 58z" />
    <glyph glyph-name="trademark" unicode="&#x2122;" horiz-adv-x="1600" 
d="M1000 1499v-499h-200v700h200v-2h72l128 -141l129 141h71v2h200v-700l-200 100v401l-62 -61v1l-139 -141zM300 1500h-200l100 200h500v-200h-200v-500h-200v500z" />
    <glyph glyph-name="u" unicode="u" 
d="M1200 0l-200 100v25q-149 -125 -350 -125q-228 0 -389 161q-160 160 -161 387v552h200v-552q1 -144 102 -246q103 -102 248 -102t247 102t103 246v552h200v-1100z" />
    <glyph glyph-name="U" unicode="U" 
d="M100 549v1051h200v-1051q0 -144 103 -246q102 -103 247 -103t248 103q102 102 102 246v951l200 100v-1051q0 -227 -161 -388t-389 -161t-389 161t-161 388z" />
    <glyph glyph-name="uacute" unicode="&#xfa;" 
d="M1200 0l-200 100v25q-149 -125 -350 -125q-228 0 -389 161q-160 160 -161 387v552h200v-552q1 -144 102 -246q103 -102 248 -102t247 102t103 246v552h200v-1100zM598 1261l164 378l238 -182l-322 -257z" />
    <glyph glyph-name="Uacute" unicode="&#xda;" 
d="M100 549v1051h200v-1051q0 -144 103 -246q102 -103 247 -103t248 103q102 102 102 246v951l200 100v-1051q0 -227 -161 -388t-389 -161t-389 161t-161 388zM600 1761l164 378l238 -182l-322 -257z" />
    <glyph glyph-name="ugrave" unicode="&#xf9;" 
d="M1200 0l-200 100v25q-149 -125 -350 -125q-228 0 -389 161q-160 160 -161 387v552h200v-552q1 -144 102 -246q103 -102 248 -102t247 102t103 246v552h200v-1100zM621 1200l-323 257l238 182l164 -378z" />
    <glyph glyph-name="Ugrave" unicode="&#xd9;" 
d="M100 549v1051h200v-1051q0 -144 103 -246q102 -103 247 -103t248 103q102 102 102 246v951l200 100v-1051q0 -227 -161 -388t-389 -161t-389 161t-161 388zM620 1700l-322 257l238 182l164 -378z" />
    <glyph glyph-name="ucircumflex" unicode="&#xfb;" 
d="M1200 0l-200 100v25q-149 -125 -350 -125q-228 0 -389 161q-160 160 -161 387v552h200v-552q1 -144 102 -246q103 -102 248 -102t247 102t103 246v552h200v-1100zM650 1411l-212 -212l-142 141l354 354l354 -354l-142 -142z" />
    <glyph glyph-name="Ucircumflex" unicode="&#xdb;" 
d="M100 549v1051h200v-1051q0 -144 103 -246q102 -103 247 -103t248 103q102 102 102 246v951l200 100v-1051q0 -227 -161 -388t-389 -161t-389 161t-161 388zM650 1911l-212 -212l-142 141l354 354l354 -354l-142 -142z" />
    <glyph glyph-name="udieresis" unicode="&#xfc;" 
d="M1200 0l-200 100v25q-149 -125 -350 -125q-228 0 -389 161q-160 160 -161 387v552h200v-552q1 -144 102 -246q103 -102 248 -102t247 102t103 246v552h200v-1100zM829.5 1229.5q-29.5 29.5 -29.5 70.5t29.5 70.5t70.5 29.5t70.5 -29.5t29.5 -70.5t-29.5 -70.5
t-70.5 -29.5t-70.5 29.5zM329.5 1229.5q-29.5 29.5 -29.5 70.5t29.5 70.5t70.5 29.5t70.5 -29.5t29.5 -70.5t-29.5 -70.5t-70.5 -29.5t-70.5 29.5z" />
    <glyph glyph-name="Udieresis" unicode="&#xdc;" 
d="M100 549v1051h200v-1051q0 -144 103 -246q102 -103 247 -103t248 103q102 102 102 246v951l200 100v-1051q0 -227 -161 -388t-389 -161t-389 161t-161 388zM829.5 1729.5q-29.5 29.5 -29.5 70.5t29.5 70.5t70.5 29.5t70.5 -29.5t29.5 -70.5t-29.5 -70.5t-70.5 -29.5
t-70.5 29.5zM329.5 1729.5q-29.5 29.5 -29.5 70.5t29.5 70.5t70.5 29.5t70.5 -29.5t29.5 -70.5t-29.5 -70.5t-70.5 -29.5t-70.5 29.5z" />
    <glyph glyph-name="v" unicode="v" horiz-adv-x="1100" 
d="M700 1v-1h-200l1 3l-400 1097h213l286 -815l287 815h213z" />
    <glyph glyph-name="V" unicode="V" horiz-adv-x="1300" 
d="M799 3l1 -3h-200l1 3l-501 1597h210l390 -1273l390 1273h210z" />
    <glyph glyph-name="w" unicode="w" horiz-adv-x="1900" 
d="M1000 825l-300 -824v-1h-200l1 3l-400 1097h213l286 -815l300 815h200l300 -815l286 815h213l-400 -1097l1 -3h-200v1z" />
    <glyph glyph-name="W" unicode="W" horiz-adv-x="2300" 
d="M1200 1281l-401 -1278l1 -3h-200l1 3l-501 1597h210l390 -1273l400 1273h200l400 -1273l390 1273h210l-501 -1597l1 -3h-200l1 3z" />
    <glyph glyph-name="x" unicode="x" horiz-adv-x="1100" 
d="M720 550l379 -550h-242l-259 374l-258 -374h-241l-1 1l379 549l-379 549l1 1h241l258 -374l259 374h242z" />
    <glyph glyph-name="X" unicode="X" 
d="M766 800l437 -800h-228l-323 592l-324 -592h-228l438 800l-438 800h228l324 -592l323 592h228z" />
    <glyph glyph-name="y" unicode="y" horiz-adv-x="1100" 
d="M899 0h-42l-759 1099l1 1h241l560 -812v712l200 100v-1100q-18 -198 -161 -341t-339 -159v201q113 15 197 99q85 85 102 200z" />
    <glyph glyph-name="Y" unicode="Y" 
d="M328 0h-228l438 800l-438 800h228l324 -592l323 592h228z" />
    <glyph glyph-name="yacute" unicode="&#xfd;" horiz-adv-x="1100" 
d="M899 0h-42l-759 1099l1 1h241l560 -812v712l200 100v-1100q-18 -198 -161 -341t-339 -159v201q113 15 197 99q85 85 102 200zM598 1261l164 378l238 -182l-322 -257z" />
    <glyph glyph-name="Yacute" unicode="&#xdd;" 
d="M328 0h-228l438 800l-438 800h228l324 -592l323 592h228zM600 1761l164 378l238 -182l-322 -257z" />
    <glyph glyph-name="ydieresis" unicode="&#xff;" horiz-adv-x="1100" 
d="M899 0h-42l-759 1099l1 1h241l560 -812v712l200 100v-1100q-18 -198 -161 -341t-339 -159v201q113 15 197 99q85 85 102 200zM829.5 1229.5q-29.5 29.5 -29.5 70.5t29.5 70.5t70.5 29.5t70.5 -29.5t29.5 -70.5t-29.5 -70.5t-70.5 -29.5t-70.5 29.5zM329.5 1229.5
q-29.5 29.5 -29.5 70.5t29.5 70.5t70.5 29.5t70.5 -29.5t29.5 -70.5t-29.5 -70.5t-70.5 -29.5t-70.5 29.5z" />
    <glyph glyph-name="z" unicode="z" horiz-adv-x="1100" 
d="M719 900h-519l-100 200h999l-621 -900h622v-200h-1001l-1 1z" />
    <glyph glyph-name="Z" unicode="Z" 
d="M866 1400h-666l-100 200h1103l-766 -1400h763v-200h-1100z" />
  </font>
</defs>
</svg>
